<?xml version="1.0" encoding="UTF-8" standalone="no"?><!DOCTYPE svg PUBLIC "-//W3C//DTD SVG 1.1//EN" "http://www.w3.org/Graphics/SVG/1.1/DTD/svg11.dtd"><svg width="100%" height="100%" viewBox="0 0 200 205" version="1.1" xmlns="http://www.w3.org/2000/svg" xmlns:xlink="http://www.w3.org/1999/xlink" xml:space="preserve" xmlns:serif="http://www.serif.com/" style="fill-rule:evenodd;clip-rule:evenodd;stroke-linejoin:round;stroke-miterlimit:2;"><rect id="ArtBoard1" x="0" y="0" width="200" height="204.167" style="fill:none;"/><g><path d="M170.833,79.167l0,87.5c0,9.198 -7.468,16.666 -16.666,16.666l-108.334,0c-9.198,0 -16.666,-7.468 -16.666,-16.666l-0,-87.5c-0,-9.199 7.468,-16.667 16.666,-16.667l108.334,-0c9.198,-0 16.666,7.468 16.666,16.667Z" style="fill:#eff3f9;"/><path d="M45.833,158.333l0,-95.833c-9.204,-0 -16.666,7.462 -16.666,16.667l-0,87.5c-0,9.204 7.462,16.666 16.666,16.666l108.334,0c9.204,0 16.666,-7.462 16.666,-16.666l-116.666,-0c-4.605,-0 -8.334,-3.73 -8.334,-8.334Z" style="fill:#cfe0f3;fill-rule:nonzero;"/><circle cx="75" cy="104.167" r="8.333" style="fill:#afb4c2;"/><circle cx="125" cy="104.167" r="8.333" style="fill:#afb4c2;"/><path d="M187.5,150l-16.667,-0l0,-54.167l16.667,0c4.604,0 8.333,3.729 8.333,8.334l0,37.5c0,4.604 -3.729,8.333 -8.333,8.333Z" style="fill:#8c94af;fill-rule:nonzero;"/><path d="M12.5,150l16.667,-0l-0,-54.167l-16.667,0c-4.604,0 -8.333,3.729 -8.333,8.334l-0,37.5c-0,4.604 3.729,8.333 8.333,8.333Z" style="fill:#8c94af;fill-rule:nonzero;"/><path d="M187.5,133.333l-16.667,0l0,16.667l16.667,-0c4.604,-0 8.333,-3.729 8.333,-8.333l0,-16.667c0,4.604 -3.729,8.333 -8.333,8.333Z" style="fill:#6f7792;fill-rule:nonzero;"/><path d="M4.167,125l-0,16.667c-0,4.604 3.729,8.333 8.333,8.333l16.667,-0l-0,-16.667l-16.667,0c-4.604,0 -8.333,-3.729 -8.333,-8.333Z" style="fill:#6f7792;fill-rule:nonzero;"/><circle cx="100" cy="25" r="12.5" style="fill:#ff3b65;"/><path d="M106.25,29.167c-5.754,-0 -10.417,-4.663 -10.417,-10.417c0,-2.25 0.73,-4.321 1.946,-6.025c-5.841,1.05 -10.279,6.133 -10.279,12.275c0,6.904 5.596,12.5 12.5,12.5c6.142,-0 11.225,-4.438 12.275,-10.279c-1.704,1.212 -3.775,1.946 -6.025,1.946Z" style="fill:#d82b50;fill-opacity:0.75;fill-rule:nonzero;"/><path d="M87.5,104.167c0,-6.892 -5.608,-12.5 -12.5,-12.5c-6.892,-0 -12.5,5.608 -12.5,12.5c0,6.891 5.608,12.5 12.5,12.5c6.892,-0 12.5,-5.609 12.5,-12.5Zm-12.5,4.166c-2.296,0 -4.167,-1.866 -4.167,-4.166c0,-2.3 1.871,-4.167 4.167,-4.167c2.296,-0 4.167,1.871 4.167,4.167c-0,2.295 -1.871,4.166 -4.167,4.166Z" style="fill:#08105e;fill-rule:nonzero;"/><path d="M125,91.667c-6.892,-0 -12.5,5.608 -12.5,12.5c0,6.891 5.608,12.5 12.5,12.5c6.892,-0 12.5,-5.609 12.5,-12.5c0,-6.892 -5.608,-12.5 -12.5,-12.5Zm0,16.666c-2.296,0 -4.167,-1.866 -4.167,-4.166c0,-2.3 1.871,-4.167 4.167,-4.167c2.296,-0 4.167,1.871 4.167,4.167c-0,2.295 -1.871,4.166 -4.167,4.166Z" style="fill:#08105e;fill-rule:nonzero;"/><path d="M113.637,143.051c-9.097,-0.171 -21.42,-0.057 -32.566,-1.759c-2.279,-0.348 -4.558,-0.246 -5.613,1.804c-1.054,2.05 -0.245,4.558 1.805,5.612c6.954,3.571 11.465,2.295 19.386,2.295c7.92,-0 19.134,1.28 26.089,-2.295c2.045,-1.054 4.168,-7.374 3.402,-9.847c-0.681,-2.2 -10.198,4.233 -12.503,4.19Z" style="fill:#08105e;fill-rule:nonzero;"/><path d="M187.5,91.667l-12.5,-0l0,-12.5c0,-11.488 -9.346,-20.834 -20.833,-20.834l-50,0l-0,-17.258c7.166,-1.863 12.5,-8.333 12.5,-16.075c-0,-9.192 -7.475,-16.667 -16.667,-16.667c-9.192,0 -16.667,7.475 -16.667,16.667c0,7.742 5.334,14.212 12.5,16.075l0,17.258l-50,0c-11.487,0 -20.833,9.346 -20.833,20.834l0,12.5l-12.5,-0c-6.892,-0 -12.5,5.608 -12.5,12.5l0,37.5c0,6.891 5.608,12.5 12.5,12.5l12.5,-0l0,12.5c0,11.487 9.346,20.833 20.833,20.833l108.334,-0c11.487,-0 20.833,-9.346 20.833,-20.833l0,-12.5l12.5,-0c6.892,-0 12.5,-5.609 12.5,-12.5l0,-37.5c0,-6.892 -5.608,-12.5 -12.5,-12.5Zm-95.833,-66.667c-0,-4.596 3.737,-8.333 8.333,-8.333c4.596,-0 8.333,3.737 8.333,8.333c0,4.596 -3.737,8.333 -8.333,8.333c-4.596,0 -8.333,-3.737 -8.333,-8.333Zm-79.167,120.833c-2.296,0 -4.167,-1.866 -4.167,-4.166l0,-37.5c0,-2.296 1.871,-4.167 4.167,-4.167l12.5,-0l0,45.833l-12.5,0Zm154.167,20.834c-0,6.891 -5.609,12.5 -12.5,12.5l-108.334,-0c-6.891,-0 -12.5,-5.609 -12.5,-12.5l0,-87.5c0,-6.892 5.609,-12.5 12.5,-12.5l108.334,-0c6.891,-0 12.5,5.608 12.5,12.5l-0,87.5Zm25,-25c-0,2.3 -1.871,4.166 -4.167,4.166l-12.5,0l0,-45.833l12.5,-0c2.296,-0 4.167,1.871 4.167,4.167l-0,37.5Z" style="fill:#08105e;fill-rule:nonzero;"/></g></svg>